<svg width="3774" height="809" viewBox="0 0 3774 809" fill="none" xmlns="http://www.w3.org/2000/svg">
<rect x="9.5" y="189.5" width="629" height="388" fill="#E5D1A0" stroke="black" stroke-width="19"/>
<path d="M308.25 391.672V400.672H259.031L258.656 393.875L288.094 347.75H297.141L287.344 364.531L270.422 391.672H308.25ZM299.719 347.75V416H288.422V347.75H299.719ZM316.922 410.375C316.922 408.625 317.516 407.156 318.703 405.969C319.891 404.75 321.5 404.141 323.531 404.141C325.594 404.141 327.203 404.75 328.359 405.969C329.547 407.156 330.141 408.625 330.141 410.375C330.141 412.125 329.547 413.594 328.359 414.781C327.203 415.969 325.594 416.562 323.531 416.562C321.5 416.562 319.891 415.969 318.703 414.781C317.516 413.594 316.922 412.125 316.922 410.375ZM354.375 384.266L345.375 382.062L349.078 347.75H385.875V357.312H358.453L356.578 374.047C357.641 373.422 359.109 372.812 360.984 372.219C362.859 371.594 365 371.281 367.406 371.281C370.625 371.281 373.5 371.812 376.031 372.875C378.594 373.906 380.766 375.422 382.547 377.422C384.328 379.391 385.688 381.797 386.625 384.641C387.562 387.453 388.031 390.625 388.031 394.156C388.031 397.312 387.562 400.266 386.625 403.016C385.719 405.766 384.344 408.188 382.5 410.281C380.656 412.375 378.328 414.016 375.516 415.203C372.734 416.359 369.438 416.938 365.625 416.938C362.781 416.938 360.047 416.531 357.422 415.719C354.828 414.875 352.5 413.641 350.438 412.016C348.375 410.359 346.719 408.328 345.469 405.922C344.219 403.484 343.5 400.688 343.312 397.531H354.375C354.656 399.75 355.266 401.641 356.203 403.203C357.172 404.734 358.453 405.906 360.047 406.719C361.641 407.531 363.484 407.938 365.578 407.938C367.484 407.938 369.125 407.609 370.5 406.953C371.875 406.266 373.016 405.297 373.922 404.047C374.859 402.766 375.547 401.266 375.984 399.547C376.453 397.828 376.688 395.922 376.688 393.828C376.688 391.828 376.422 390 375.891 388.344C375.391 386.688 374.625 385.25 373.594 384.031C372.594 382.812 371.328 381.875 369.797 381.219C368.266 380.531 366.5 380.188 364.5 380.188C361.812 380.188 359.75 380.578 358.312 381.359C356.906 382.141 355.594 383.109 354.375 384.266Z" fill="black"/>
<rect x="1267.5" y="189.5" width="629" height="388" fill="#E5D1A0" stroke="black" stroke-width="19"/>
<path d="M1566.25 391.672V400.672H1517.03L1516.66 393.875L1546.09 347.75H1555.14L1545.34 364.531L1528.42 391.672H1566.25ZM1557.72 347.75V416H1546.42V347.75H1557.72ZM1574.92 410.375C1574.92 408.625 1575.52 407.156 1576.7 405.969C1577.89 404.75 1579.5 404.141 1581.53 404.141C1583.59 404.141 1585.2 404.75 1586.36 405.969C1587.55 407.156 1588.14 408.625 1588.14 410.375C1588.14 412.125 1587.55 413.594 1586.36 414.781C1585.2 415.969 1583.59 416.562 1581.53 416.562C1579.5 416.562 1577.89 415.969 1576.7 414.781C1575.52 413.594 1574.92 412.125 1574.92 410.375ZM1645 376.156V387.312C1645 392.656 1644.47 397.219 1643.41 401C1642.38 404.75 1640.88 407.797 1638.91 410.141C1636.94 412.484 1634.58 414.203 1631.83 415.297C1629.11 416.391 1626.06 416.938 1622.69 416.938C1620 416.938 1617.5 416.594 1615.19 415.906C1612.91 415.219 1610.84 414.141 1609 412.672C1607.16 411.203 1605.58 409.312 1604.27 407C1602.98 404.656 1601.98 401.859 1601.27 398.609C1600.58 395.359 1600.23 391.594 1600.23 387.312V376.156C1600.23 370.781 1600.77 366.25 1601.83 362.562C1602.89 358.844 1604.41 355.828 1606.38 353.516C1608.34 351.172 1610.69 349.469 1613.41 348.406C1616.16 347.344 1619.22 346.812 1622.59 346.812C1625.31 346.812 1627.81 347.156 1630.09 347.844C1632.41 348.5 1634.47 349.547 1636.28 350.984C1638.12 352.422 1639.69 354.297 1640.97 356.609C1642.28 358.891 1643.28 361.656 1643.97 364.906C1644.66 368.125 1645 371.875 1645 376.156ZM1633.7 388.906V374.469C1633.7 371.75 1633.55 369.359 1633.23 367.297C1632.92 365.203 1632.45 363.438 1631.83 362C1631.23 360.531 1630.48 359.344 1629.58 358.438C1628.67 357.5 1627.64 356.828 1626.48 356.422C1625.33 355.984 1624.03 355.766 1622.59 355.766C1620.84 355.766 1619.28 356.109 1617.91 356.797C1616.53 357.453 1615.38 358.516 1614.44 359.984C1613.5 361.453 1612.78 363.391 1612.28 365.797C1611.81 368.172 1611.58 371.062 1611.58 374.469V388.906C1611.58 391.656 1611.73 394.078 1612.05 396.172C1612.36 398.266 1612.83 400.062 1613.45 401.562C1614.08 403.031 1614.83 404.25 1615.7 405.219C1616.61 406.156 1617.64 406.844 1618.8 407.281C1619.98 407.719 1621.28 407.938 1622.69 407.938C1624.47 407.938 1626.05 407.594 1627.42 406.906C1628.8 406.219 1629.95 405.125 1630.89 403.625C1631.83 402.094 1632.53 400.109 1633 397.672C1633.47 395.234 1633.7 392.312 1633.7 388.906Z" fill="black"/>
<rect x="638.5" y="189.5" width="629" height="388" fill="#E5D1A0" stroke="black" stroke-width="19"/>
<path d="M924.359 347.328H925.766V356.562H924.969C920.938 356.562 917.453 357.188 914.516 358.438C911.609 359.688 909.219 361.406 907.344 363.594C905.469 365.781 904.062 368.344 903.125 371.281C902.219 374.188 901.766 377.281 901.766 380.562V391.297C901.766 394.016 902.062 396.422 902.656 398.516C903.25 400.578 904.078 402.312 905.141 403.719C906.234 405.094 907.484 406.141 908.891 406.859C910.297 407.578 911.812 407.938 913.438 407.938C915.125 407.938 916.656 407.594 918.031 406.906C919.406 406.188 920.578 405.203 921.547 403.953C922.516 402.703 923.25 401.219 923.75 399.5C924.25 397.781 924.5 395.906 924.5 393.875C924.5 391.938 924.25 390.125 923.75 388.438C923.281 386.719 922.578 385.219 921.641 383.938C920.703 382.625 919.531 381.609 918.125 380.891C916.75 380.141 915.156 379.766 913.344 379.766C911.094 379.766 909.047 380.297 907.203 381.359C905.391 382.422 903.922 383.812 902.797 385.531C901.703 387.219 901.109 389.016 901.016 390.922L896.703 389.516C896.953 386.609 897.594 384 898.625 381.688C899.688 379.375 901.078 377.406 902.797 375.781C904.516 374.156 906.5 372.922 908.75 372.078C911.031 371.203 913.531 370.766 916.25 370.766C919.562 370.766 922.438 371.391 924.875 372.641C927.312 373.891 929.328 375.594 930.922 377.75C932.547 379.875 933.75 382.312 934.531 385.062C935.344 387.781 935.75 390.625 935.75 393.594C935.75 396.875 935.25 399.938 934.25 402.781C933.25 405.594 931.781 408.062 929.844 410.188C927.938 412.312 925.609 413.969 922.859 415.156C920.141 416.344 917.047 416.938 913.578 416.938C909.922 416.938 906.656 416.234 903.781 414.828C900.938 413.422 898.516 411.484 896.516 409.016C894.547 406.547 893.047 403.703 892.016 400.484C890.984 397.266 890.469 393.859 890.469 390.266V385.578C890.469 380.391 891.125 375.5 892.438 370.906C893.75 366.281 895.766 362.203 898.484 358.672C901.234 355.141 904.75 352.375 909.031 350.375C913.312 348.344 918.422 347.328 924.359 347.328ZM945.922 410.375C945.922 408.625 946.516 407.156 947.703 405.969C948.891 404.75 950.5 404.141 952.531 404.141C954.594 404.141 956.203 404.75 957.359 405.969C958.547 407.156 959.141 408.625 959.141 410.375C959.141 412.125 958.547 413.594 957.359 414.781C956.203 415.969 954.594 416.562 952.531 416.562C950.5 416.562 948.891 415.969 947.703 414.781C946.516 413.594 945.922 412.125 945.922 410.375ZM983.375 384.266L974.375 382.062L978.078 347.75H1014.88V357.312H987.453L985.578 374.047C986.641 373.422 988.109 372.812 989.984 372.219C991.859 371.594 994 371.281 996.406 371.281C999.625 371.281 1002.5 371.812 1005.03 372.875C1007.59 373.906 1009.77 375.422 1011.55 377.422C1013.33 379.391 1014.69 381.797 1015.62 384.641C1016.56 387.453 1017.03 390.625 1017.03 394.156C1017.03 397.312 1016.56 400.266 1015.62 403.016C1014.72 405.766 1013.34 408.188 1011.5 410.281C1009.66 412.375 1007.33 414.016 1004.52 415.203C1001.73 416.359 998.438 416.938 994.625 416.938C991.781 416.938 989.047 416.531 986.422 415.719C983.828 414.875 981.5 413.641 979.438 412.016C977.375 410.359 975.719 408.328 974.469 405.922C973.219 403.484 972.5 400.688 972.312 397.531H983.375C983.656 399.75 984.266 401.641 985.203 403.203C986.172 404.734 987.453 405.906 989.047 406.719C990.641 407.531 992.484 407.938 994.578 407.938C996.484 407.938 998.125 407.609 999.5 406.953C1000.88 406.266 1002.02 405.297 1002.92 404.047C1003.86 402.766 1004.55 401.266 1004.98 399.547C1005.45 397.828 1005.69 395.922 1005.69 393.828C1005.69 391.828 1005.42 390 1004.89 388.344C1004.39 386.688 1003.62 385.25 1002.59 384.031C1001.59 382.812 1000.33 381.875 998.797 381.219C997.266 380.531 995.5 380.188 993.5 380.188C990.812 380.188 988.75 380.578 987.312 381.359C985.906 382.141 984.594 383.109 983.375 384.266Z" fill="black"/>
<rect x="1877.5" y="189.5" width="629" height="388" fill="#E5D1A0" stroke="black" stroke-width="19"/>
<path d="M2141.09 384.266L2132.09 382.062L2135.8 347.75H2172.59V357.312H2145.17L2143.3 374.047C2144.36 373.422 2145.83 372.812 2147.7 372.219C2149.58 371.594 2151.72 371.281 2154.12 371.281C2157.34 371.281 2160.22 371.812 2162.75 372.875C2165.31 373.906 2167.48 375.422 2169.27 377.422C2171.05 379.391 2172.41 381.797 2173.34 384.641C2174.28 387.453 2174.75 390.625 2174.75 394.156C2174.75 397.312 2174.28 400.266 2173.34 403.016C2172.44 405.766 2171.06 408.188 2169.22 410.281C2167.38 412.375 2165.05 414.016 2162.23 415.203C2159.45 416.359 2156.16 416.938 2152.34 416.938C2149.5 416.938 2146.77 416.531 2144.14 415.719C2141.55 414.875 2139.22 413.641 2137.16 412.016C2135.09 410.359 2133.44 408.328 2132.19 405.922C2130.94 403.484 2130.22 400.688 2130.03 397.531H2141.09C2141.38 399.75 2141.98 401.641 2142.92 403.203C2143.89 404.734 2145.17 405.906 2146.77 406.719C2148.36 407.531 2150.2 407.938 2152.3 407.938C2154.2 407.938 2155.84 407.609 2157.22 406.953C2158.59 406.266 2159.73 405.297 2160.64 404.047C2161.58 402.766 2162.27 401.266 2162.7 399.547C2163.17 397.828 2163.41 395.922 2163.41 393.828C2163.41 391.828 2163.14 390 2162.61 388.344C2162.11 386.688 2161.34 385.25 2160.31 384.031C2159.31 382.812 2158.05 381.875 2156.52 381.219C2154.98 380.531 2153.22 380.188 2151.22 380.188C2148.53 380.188 2146.47 380.578 2145.03 381.359C2143.62 382.141 2142.31 383.109 2141.09 384.266ZM2184.92 410.375C2184.92 408.625 2185.52 407.156 2186.7 405.969C2187.89 404.75 2189.5 404.141 2191.53 404.141C2193.59 404.141 2195.2 404.75 2196.36 405.969C2197.55 407.156 2198.14 408.625 2198.14 410.375C2198.14 412.125 2197.55 413.594 2196.36 414.781C2195.2 415.969 2193.59 416.562 2191.53 416.562C2189.5 416.562 2187.89 415.969 2186.7 414.781C2185.52 413.594 2184.92 412.125 2184.92 410.375ZM2255 376.156V387.312C2255 392.656 2254.47 397.219 2253.41 401C2252.38 404.75 2250.88 407.797 2248.91 410.141C2246.94 412.484 2244.58 414.203 2241.83 415.297C2239.11 416.391 2236.06 416.938 2232.69 416.938C2230 416.938 2227.5 416.594 2225.19 415.906C2222.91 415.219 2220.84 414.141 2219 412.672C2217.16 411.203 2215.58 409.312 2214.27 407C2212.98 404.656 2211.98 401.859 2211.27 398.609C2210.58 395.359 2210.23 391.594 2210.23 387.312V376.156C2210.23 370.781 2210.77 366.25 2211.83 362.562C2212.89 358.844 2214.41 355.828 2216.38 353.516C2218.34 351.172 2220.69 349.469 2223.41 348.406C2226.16 347.344 2229.22 346.812 2232.59 346.812C2235.31 346.812 2237.81 347.156 2240.09 347.844C2242.41 348.5 2244.47 349.547 2246.28 350.984C2248.12 352.422 2249.69 354.297 2250.97 356.609C2252.28 358.891 2253.28 361.656 2253.97 364.906C2254.66 368.125 2255 371.875 2255 376.156ZM2243.7 388.906V374.469C2243.7 371.75 2243.55 369.359 2243.23 367.297C2242.92 365.203 2242.45 363.438 2241.83 362C2241.23 360.531 2240.48 359.344 2239.58 358.438C2238.67 357.5 2237.64 356.828 2236.48 356.422C2235.33 355.984 2234.03 355.766 2232.59 355.766C2230.84 355.766 2229.28 356.109 2227.91 356.797C2226.53 357.453 2225.38 358.516 2224.44 359.984C2223.5 361.453 2222.78 363.391 2222.28 365.797C2221.81 368.172 2221.58 371.062 2221.58 374.469V388.906C2221.58 391.656 2221.73 394.078 2222.05 396.172C2222.36 398.266 2222.83 400.062 2223.45 401.562C2224.08 403.031 2224.83 404.25 2225.7 405.219C2226.61 406.156 2227.64 406.844 2228.8 407.281C2229.98 407.719 2231.28 407.938 2232.69 407.938C2234.47 407.938 2236.05 407.594 2237.42 406.906C2238.8 406.219 2239.95 405.125 2240.89 403.625C2241.83 402.094 2242.53 400.109 2243 397.672C2243.47 395.234 2243.7 392.312 2243.7 388.906Z" fill="black"/>
<rect x="3135.5" y="189.5" width="629" height="388" fill="#E5D1A0" stroke="black" stroke-width="19"/>
<path d="M3399.09 384.266L3390.09 382.062L3393.8 347.75H3430.59V357.312H3403.17L3401.3 374.047C3402.36 373.422 3403.83 372.812 3405.7 372.219C3407.58 371.594 3409.72 371.281 3412.12 371.281C3415.34 371.281 3418.22 371.812 3420.75 372.875C3423.31 373.906 3425.48 375.422 3427.27 377.422C3429.05 379.391 3430.41 381.797 3431.34 384.641C3432.28 387.453 3432.75 390.625 3432.75 394.156C3432.75 397.312 3432.28 400.266 3431.34 403.016C3430.44 405.766 3429.06 408.188 3427.22 410.281C3425.38 412.375 3423.05 414.016 3420.23 415.203C3417.45 416.359 3414.16 416.938 3410.34 416.938C3407.5 416.938 3404.77 416.531 3402.14 415.719C3399.55 414.875 3397.22 413.641 3395.16 412.016C3393.09 410.359 3391.44 408.328 3390.19 405.922C3388.94 403.484 3388.22 400.688 3388.03 397.531H3399.09C3399.38 399.75 3399.98 401.641 3400.92 403.203C3401.89 404.734 3403.17 405.906 3404.77 406.719C3406.36 407.531 3408.2 407.938 3410.3 407.938C3412.2 407.938 3413.84 407.609 3415.22 406.953C3416.59 406.266 3417.73 405.297 3418.64 404.047C3419.58 402.766 3420.27 401.266 3420.7 399.547C3421.17 397.828 3421.41 395.922 3421.41 393.828C3421.41 391.828 3421.14 390 3420.61 388.344C3420.11 386.688 3419.34 385.25 3418.31 384.031C3417.31 382.812 3416.05 381.875 3414.52 381.219C3412.98 380.531 3411.22 380.188 3409.22 380.188C3406.53 380.188 3404.47 380.578 3403.03 381.359C3401.62 382.141 3400.31 383.109 3399.09 384.266ZM3442.92 410.375C3442.92 408.625 3443.52 407.156 3444.7 405.969C3445.89 404.75 3447.5 404.141 3449.53 404.141C3451.59 404.141 3453.2 404.75 3454.36 405.969C3455.55 407.156 3456.14 408.625 3456.14 410.375C3456.14 412.125 3455.55 413.594 3454.36 414.781C3453.2 415.969 3451.59 416.562 3449.53 416.562C3447.5 416.562 3445.89 415.969 3444.7 414.781C3443.52 413.594 3442.92 412.125 3442.92 410.375ZM3480.38 384.266L3471.38 382.062L3475.08 347.75H3511.88V357.312H3484.45L3482.58 374.047C3483.64 373.422 3485.11 372.812 3486.98 372.219C3488.86 371.594 3491 371.281 3493.41 371.281C3496.62 371.281 3499.5 371.812 3502.03 372.875C3504.59 373.906 3506.77 375.422 3508.55 377.422C3510.33 379.391 3511.69 381.797 3512.62 384.641C3513.56 387.453 3514.03 390.625 3514.03 394.156C3514.03 397.312 3513.56 400.266 3512.62 403.016C3511.72 405.766 3510.34 408.188 3508.5 410.281C3506.66 412.375 3504.33 414.016 3501.52 415.203C3498.73 416.359 3495.44 416.938 3491.62 416.938C3488.78 416.938 3486.05 416.531 3483.42 415.719C3480.83 414.875 3478.5 413.641 3476.44 412.016C3474.38 410.359 3472.72 408.328 3471.47 405.922C3470.22 403.484 3469.5 400.688 3469.31 397.531H3480.38C3480.66 399.75 3481.27 401.641 3482.2 403.203C3483.17 404.734 3484.45 405.906 3486.05 406.719C3487.64 407.531 3489.48 407.938 3491.58 407.938C3493.48 407.938 3495.12 407.609 3496.5 406.953C3497.88 406.266 3499.02 405.297 3499.92 404.047C3500.86 402.766 3501.55 401.266 3501.98 399.547C3502.45 397.828 3502.69 395.922 3502.69 393.828C3502.69 391.828 3502.42 390 3501.89 388.344C3501.39 386.688 3500.62 385.25 3499.59 384.031C3498.59 382.812 3497.33 381.875 3495.8 381.219C3494.27 380.531 3492.5 380.188 3490.5 380.188C3487.81 380.188 3485.75 380.578 3484.31 381.359C3482.91 382.141 3481.59 383.109 3480.38 384.266Z" fill="black"/>
<rect x="2506.5" y="189.5" width="629" height="388" fill="#E5D1A0" stroke="black" stroke-width="19"/>
<path d="M2803.56 347.75V353.938L2776.28 416H2764.38L2791.61 356.75H2756.27V347.75H2803.56ZM2813.92 410.375C2813.92 408.625 2814.52 407.156 2815.7 405.969C2816.89 404.75 2818.5 404.141 2820.53 404.141C2822.59 404.141 2824.2 404.75 2825.36 405.969C2826.55 407.156 2827.14 408.625 2827.14 410.375C2827.14 412.125 2826.55 413.594 2825.36 414.781C2824.2 415.969 2822.59 416.562 2820.53 416.562C2818.5 416.562 2816.89 415.969 2815.7 414.781C2814.52 413.594 2813.92 412.125 2813.92 410.375ZM2884 376.156V387.312C2884 392.656 2883.47 397.219 2882.41 401C2881.38 404.75 2879.88 407.797 2877.91 410.141C2875.94 412.484 2873.58 414.203 2870.83 415.297C2868.11 416.391 2865.06 416.938 2861.69 416.938C2859 416.938 2856.5 416.594 2854.19 415.906C2851.91 415.219 2849.84 414.141 2848 412.672C2846.16 411.203 2844.58 409.312 2843.27 407C2841.98 404.656 2840.98 401.859 2840.27 398.609C2839.58 395.359 2839.23 391.594 2839.23 387.312V376.156C2839.23 370.781 2839.77 366.25 2840.83 362.562C2841.89 358.844 2843.41 355.828 2845.38 353.516C2847.34 351.172 2849.69 349.469 2852.41 348.406C2855.16 347.344 2858.22 346.812 2861.59 346.812C2864.31 346.812 2866.81 347.156 2869.09 347.844C2871.41 348.5 2873.47 349.547 2875.28 350.984C2877.12 352.422 2878.69 354.297 2879.97 356.609C2881.28 358.891 2882.28 361.656 2882.97 364.906C2883.66 368.125 2884 371.875 2884 376.156ZM2872.7 388.906V374.469C2872.7 371.75 2872.55 369.359 2872.23 367.297C2871.92 365.203 2871.45 363.438 2870.83 362C2870.23 360.531 2869.48 359.344 2868.58 358.438C2867.67 357.5 2866.64 356.828 2865.48 356.422C2864.33 355.984 2863.03 355.766 2861.59 355.766C2859.84 355.766 2858.28 356.109 2856.91 356.797C2855.53 357.453 2854.38 358.516 2853.44 359.984C2852.5 361.453 2851.78 363.391 2851.28 365.797C2850.81 368.172 2850.58 371.062 2850.58 374.469V388.906C2850.58 391.656 2850.73 394.078 2851.05 396.172C2851.36 398.266 2851.83 400.062 2852.45 401.562C2853.08 403.031 2853.83 404.25 2854.7 405.219C2855.61 406.156 2856.64 406.844 2857.8 407.281C2858.98 407.719 2860.28 407.938 2861.69 407.938C2863.47 407.938 2865.05 407.594 2866.42 406.906C2867.8 406.219 2868.95 405.125 2869.89 403.625C2870.83 402.094 2871.53 400.109 2872 397.672C2872.47 395.234 2872.7 392.312 2872.7 388.906Z" fill="black"/>
<path d="M295.375 26.2969V35.0156H287.688V111.516H295.375V120.281H276.391V26.2969H295.375ZM345.859 65.1562V76.3125C345.859 81.6562 345.328 86.2188 344.266 90C343.234 93.75 341.734 96.7969 339.766 99.1406C337.797 101.484 335.438 103.203 332.688 104.297C329.969 105.391 326.922 105.938 323.547 105.938C320.859 105.938 318.359 105.594 316.047 104.906C313.766 104.219 311.703 103.141 309.859 101.672C308.016 100.203 306.438 98.3125 305.125 96C303.844 93.6562 302.844 90.8594 302.125 87.6094C301.438 84.3594 301.094 80.5938 301.094 76.3125V65.1562C301.094 59.7812 301.625 55.25 302.688 51.5625C303.75 47.8438 305.266 44.8281 307.234 42.5156C309.203 40.1719 311.547 38.4688 314.266 37.4062C317.016 36.3438 320.078 35.8125 323.453 35.8125C326.172 35.8125 328.672 36.1562 330.953 36.8438C333.266 37.5 335.328 38.5469 337.141 39.9844C338.984 41.4219 340.547 43.2969 341.828 45.6094C343.141 47.8906 344.141 50.6562 344.828 53.9062C345.516 57.125 345.859 60.875 345.859 65.1562ZM334.562 77.9062V63.4688C334.562 60.75 334.406 58.3594 334.094 56.2969C333.781 54.2031 333.312 52.4375 332.688 51C332.094 49.5312 331.344 48.3438 330.438 47.4375C329.531 46.5 328.5 45.8281 327.344 45.4219C326.188 44.9844 324.891 44.7656 323.453 44.7656C321.703 44.7656 320.141 45.1094 318.766 45.7969C317.391 46.4531 316.234 47.5156 315.297 48.9844C314.359 50.4531 313.641 52.3906 313.141 54.7969C312.672 57.1719 312.438 60.0625 312.438 63.4688V77.9062C312.438 80.6562 312.594 83.0781 312.906 85.1719C313.219 87.2656 313.688 89.0625 314.312 90.5625C314.938 92.0312 315.688 93.25 316.562 94.2188C317.469 95.1562 318.5 95.8438 319.656 96.2812C320.844 96.7188 322.141 96.9375 323.547 96.9375C325.328 96.9375 326.906 96.5938 328.281 95.9062C329.656 95.2188 330.812 94.125 331.75 92.625C332.688 91.0938 333.391 89.1094 333.859 86.6719C334.328 84.2344 334.562 81.3125 334.562 77.9062ZM351.297 35.0156V26.2969H370.375V120.281H351.297V111.516H359.078V35.0156H351.297Z" fill="black"/>
<path d="M3421.38 26.2969V35.0156H3413.69V111.516H3421.38V120.281H3402.39V26.2969H3421.38ZM3439.23 73.2656L3430.23 71.0625L3433.94 36.75H3470.73V46.3125H3443.31L3441.44 63.0469C3442.5 62.4219 3443.97 61.8125 3445.84 61.2188C3447.72 60.5938 3449.86 60.2812 3452.27 60.2812C3455.48 60.2812 3458.36 60.8125 3460.89 61.875C3463.45 62.9062 3465.62 64.4219 3467.41 66.4219C3469.19 68.3906 3470.55 70.7969 3471.48 73.6406C3472.42 76.4531 3472.89 79.625 3472.89 83.1562C3472.89 86.3125 3472.42 89.2656 3471.48 92.0156C3470.58 94.7656 3469.2 97.1875 3467.36 99.2812C3465.52 101.375 3463.19 103.016 3460.38 104.203C3457.59 105.359 3454.3 105.938 3450.48 105.938C3447.64 105.938 3444.91 105.531 3442.28 104.719C3439.69 103.875 3437.36 102.641 3435.3 101.016C3433.23 99.3594 3431.58 97.3281 3430.33 94.9219C3429.08 92.4844 3428.36 89.6875 3428.17 86.5312H3439.23C3439.52 88.75 3440.12 90.6406 3441.06 92.2031C3442.03 93.7344 3443.31 94.9062 3444.91 95.7188C3446.5 96.5312 3448.34 96.9375 3450.44 96.9375C3452.34 96.9375 3453.98 96.6094 3455.36 95.9531C3456.73 95.2656 3457.88 94.2969 3458.78 93.0469C3459.72 91.7656 3460.41 90.2656 3460.84 88.5469C3461.31 86.8281 3461.55 84.9219 3461.55 82.8281C3461.55 80.8281 3461.28 79 3460.75 77.3438C3460.25 75.6875 3459.48 74.25 3458.45 73.0312C3457.45 71.8125 3456.19 70.875 3454.66 70.2188C3453.12 69.5312 3451.36 69.1875 3449.36 69.1875C3446.67 69.1875 3444.61 69.5781 3443.17 70.3594C3441.77 71.1406 3440.45 72.1094 3439.23 73.2656ZM3477.3 35.0156V26.2969H3496.38V120.281H3477.3V111.516H3485.08V35.0156H3477.3Z" fill="black"/>
<path d="M2792.38 26.2969V35.0156H2784.69V111.516H2792.38V120.281H2773.39V26.2969H2792.38ZM2845.39 80.6719V89.6719H2796.17L2795.8 82.875L2825.23 36.75H2834.28L2824.48 53.5312L2807.56 80.6719H2845.39ZM2836.86 36.75V105H2825.56V36.75H2836.86ZM2848.3 35.0156V26.2969H2867.38V120.281H2848.3V111.516H2856.08V35.0156H2848.3Z" fill="black"/>
<path d="M2163.38 26.2969V35.0156H2155.69V111.516H2163.38V120.281H2144.39V26.2969H2163.38ZM2182.64 65.7656H2189.39C2192.02 65.7656 2194.19 65.3125 2195.91 64.4062C2197.66 63.5 2198.95 62.25 2199.8 60.6562C2200.64 59.0625 2201.06 57.2344 2201.06 55.1719C2201.06 53.0156 2200.67 51.1719 2199.89 49.6406C2199.14 48.0781 2197.98 46.875 2196.42 46.0312C2194.89 45.1875 2192.94 44.7656 2190.56 44.7656C2188.56 44.7656 2186.75 45.1719 2185.12 45.9844C2183.53 46.7656 2182.27 47.8906 2181.33 49.3594C2180.39 50.7969 2179.92 52.5156 2179.92 54.5156H2168.58C2168.58 50.8906 2169.53 47.6719 2171.44 44.8594C2173.34 42.0469 2175.94 39.8438 2179.22 38.25C2182.53 36.625 2186.25 35.8125 2190.38 35.8125C2194.78 35.8125 2198.62 36.5469 2201.91 38.0156C2205.22 39.4531 2207.8 41.6094 2209.64 44.4844C2211.48 47.3594 2212.41 50.9219 2212.41 55.1719C2212.41 57.1094 2211.95 59.0781 2211.05 61.0781C2210.14 63.0781 2208.8 64.9062 2207.02 66.5625C2205.23 68.1875 2203.02 69.5156 2200.36 70.5469C2197.7 71.5469 2194.62 72.0469 2191.12 72.0469H2182.64V65.7656ZM2182.64 74.5781V68.3906H2191.12C2195.12 68.3906 2198.53 68.8594 2201.34 69.7969C2204.19 70.7344 2206.5 72.0312 2208.28 73.6875C2210.06 75.3125 2211.36 77.1719 2212.17 79.2656C2213.02 81.3594 2213.44 83.5781 2213.44 85.9219C2213.44 89.1094 2212.86 91.9531 2211.7 94.4531C2210.58 96.9219 2208.97 99.0156 2206.88 100.734C2204.78 102.453 2202.33 103.75 2199.52 104.625C2196.73 105.5 2193.7 105.938 2190.42 105.938C2187.48 105.938 2184.67 105.531 2181.98 104.719C2179.3 103.906 2176.89 102.703 2174.77 101.109C2172.64 99.4844 2170.95 97.4688 2169.7 95.0625C2168.48 92.625 2167.88 89.8125 2167.88 86.625H2179.17C2179.17 88.6562 2179.64 90.4531 2180.58 92.0156C2181.55 93.5469 2182.89 94.75 2184.61 95.625C2186.36 96.5 2188.36 96.9375 2190.61 96.9375C2192.98 96.9375 2195.03 96.5156 2196.75 95.6719C2198.47 94.8281 2199.78 93.5781 2200.69 91.9219C2201.62 90.2656 2202.09 88.2656 2202.09 85.9219C2202.09 83.2656 2201.58 81.1094 2200.55 79.4531C2199.52 77.7969 2198.05 76.5781 2196.14 75.7969C2194.23 74.9844 2191.98 74.5781 2189.39 74.5781H2182.64ZM2219.3 35.0156V26.2969H2238.38V120.281H2219.3V111.516H2227.08V35.0156H2219.3Z" fill="black"/>
<path d="M1553.38 26.2969V35.0156H1545.69V111.516H1553.38V120.281H1534.39V26.2969H1553.38ZM1605.12 96V105H1559.38V97.2656L1581.59 73.0312C1584.03 70.2812 1585.95 67.9062 1587.36 65.9062C1588.77 63.9062 1589.75 62.1094 1590.31 60.5156C1590.91 58.8906 1591.2 57.3125 1591.2 55.7812C1591.2 53.625 1590.8 51.7344 1589.98 50.1094C1589.2 48.4531 1588.05 47.1562 1586.52 46.2188C1584.98 45.25 1583.12 44.7656 1580.94 44.7656C1578.41 44.7656 1576.28 45.3125 1574.56 46.4062C1572.84 47.5 1571.55 49.0156 1570.67 50.9531C1569.8 52.8594 1569.36 55.0469 1569.36 57.5156H1558.06C1558.06 53.5469 1558.97 49.9219 1560.78 46.6406C1562.59 43.3281 1565.22 40.7031 1568.66 38.7656C1572.09 36.7969 1576.23 35.8125 1581.08 35.8125C1585.64 35.8125 1589.52 36.5781 1592.7 38.1094C1595.89 39.6406 1598.31 41.8125 1599.97 44.625C1601.66 47.4375 1602.5 50.7656 1602.5 54.6094C1602.5 56.7344 1602.16 58.8438 1601.47 60.9375C1600.78 63.0312 1599.8 65.125 1598.52 67.2188C1597.27 69.2812 1595.78 71.3594 1594.06 73.4531C1592.34 75.5156 1590.45 77.6094 1588.39 79.7344L1573.62 96H1605.12ZM1609.3 35.0156V26.2969H1628.38V120.281H1609.3V111.516H1617.08V35.0156H1609.3Z" fill="black"/>
<path d="M924.375 26.2969V35.0156H916.688V111.516H924.375V120.281H905.391V26.2969H924.375ZM961.219 36.5156V105H949.922V49.9219L933.188 55.5938V46.2656L959.859 36.5156H961.219ZM980.297 35.0156V26.2969H999.375V120.281H980.297V111.516H988.078V35.0156H980.297Z" fill="black"/>
<path d="M250.875 701.516V770H239.578V714.922L222.844 720.594V711.266L249.516 701.516H250.875ZM319.078 730.156V741.312C319.078 746.656 318.547 751.219 317.484 755C316.453 758.75 314.953 761.797 312.984 764.141C311.016 766.484 308.656 768.203 305.906 769.297C303.188 770.391 300.141 770.938 296.766 770.938C294.078 770.938 291.578 770.594 289.266 769.906C286.984 769.219 284.922 768.141 283.078 766.672C281.234 765.203 279.656 763.312 278.344 761C277.062 758.656 276.062 755.859 275.344 752.609C274.656 749.359 274.312 745.594 274.312 741.312V730.156C274.312 724.781 274.844 720.25 275.906 716.562C276.969 712.844 278.484 709.828 280.453 707.516C282.422 705.172 284.766 703.469 287.484 702.406C290.234 701.344 293.297 700.812 296.672 700.812C299.391 700.812 301.891 701.156 304.172 701.844C306.484 702.5 308.547 703.547 310.359 704.984C312.203 706.422 313.766 708.297 315.047 710.609C316.359 712.891 317.359 715.656 318.047 718.906C318.734 722.125 319.078 725.875 319.078 730.156ZM307.781 742.906V728.469C307.781 725.75 307.625 723.359 307.312 721.297C307 719.203 306.531 717.438 305.906 716C305.312 714.531 304.562 713.344 303.656 712.438C302.75 711.5 301.719 710.828 300.562 710.422C299.406 709.984 298.109 709.766 296.672 709.766C294.922 709.766 293.359 710.109 291.984 710.797C290.609 711.453 289.453 712.516 288.516 713.984C287.578 715.453 286.859 717.391 286.359 719.797C285.891 722.172 285.656 725.062 285.656 728.469V742.906C285.656 745.656 285.812 748.078 286.125 750.172C286.438 752.266 286.906 754.062 287.531 755.562C288.156 757.031 288.906 758.25 289.781 759.219C290.688 760.156 291.719 760.844 292.875 761.281C294.062 761.719 295.359 761.938 296.766 761.938C298.547 761.938 300.125 761.594 301.5 760.906C302.875 760.219 304.031 759.125 304.969 757.625C305.906 756.094 306.609 754.109 307.078 751.672C307.547 749.234 307.781 746.312 307.781 742.906ZM373.641 730.156V741.312C373.641 746.656 373.109 751.219 372.047 755C371.016 758.75 369.516 761.797 367.547 764.141C365.578 766.484 363.219 768.203 360.469 769.297C357.75 770.391 354.703 770.938 351.328 770.938C348.641 770.938 346.141 770.594 343.828 769.906C341.547 769.219 339.484 768.141 337.641 766.672C335.797 765.203 334.219 763.312 332.906 761C331.625 758.656 330.625 755.859 329.906 752.609C329.219 749.359 328.875 745.594 328.875 741.312V730.156C328.875 724.781 329.406 720.25 330.469 716.562C331.531 712.844 333.047 709.828 335.016 707.516C336.984 705.172 339.328 703.469 342.047 702.406C344.797 701.344 347.859 700.812 351.234 700.812C353.953 700.812 356.453 701.156 358.734 701.844C361.047 702.5 363.109 703.547 364.922 704.984C366.766 706.422 368.328 708.297 369.609 710.609C370.922 712.891 371.922 715.656 372.609 718.906C373.297 722.125 373.641 725.875 373.641 730.156ZM362.344 742.906V728.469C362.344 725.75 362.188 723.359 361.875 721.297C361.562 719.203 361.094 717.438 360.469 716C359.875 714.531 359.125 713.344 358.219 712.438C357.312 711.5 356.281 710.828 355.125 710.422C353.969 709.984 352.672 709.766 351.234 709.766C349.484 709.766 347.922 710.109 346.547 710.797C345.172 711.453 344.016 712.516 343.078 713.984C342.141 715.453 341.422 717.391 340.922 719.797C340.453 722.172 340.219 725.062 340.219 728.469V742.906C340.219 745.656 340.375 748.078 340.688 750.172C341 752.266 341.469 754.062 342.094 755.562C342.719 757.031 343.469 758.25 344.344 759.219C345.25 760.156 346.281 760.844 347.438 761.281C348.625 761.719 349.922 761.938 351.328 761.938C353.109 761.938 354.688 761.594 356.062 760.906C357.438 760.219 358.594 759.125 359.531 757.625C360.469 756.094 361.172 754.109 361.641 751.672C362.109 749.234 362.344 746.312 362.344 742.906ZM428.203 730.156V741.312C428.203 746.656 427.672 751.219 426.609 755C425.578 758.75 424.078 761.797 422.109 764.141C420.141 766.484 417.781 768.203 415.031 769.297C412.312 770.391 409.266 770.938 405.891 770.938C403.203 770.938 400.703 770.594 398.391 769.906C396.109 769.219 394.047 768.141 392.203 766.672C390.359 765.203 388.781 763.312 387.469 761C386.188 758.656 385.188 755.859 384.469 752.609C383.781 749.359 383.438 745.594 383.438 741.312V730.156C383.438 724.781 383.969 720.25 385.031 716.562C386.094 712.844 387.609 709.828 389.578 707.516C391.547 705.172 393.891 703.469 396.609 702.406C399.359 701.344 402.422 700.812 405.797 700.812C408.516 700.812 411.016 701.156 413.297 701.844C415.609 702.5 417.672 703.547 419.484 704.984C421.328 706.422 422.891 708.297 424.172 710.609C425.484 712.891 426.484 715.656 427.172 718.906C427.859 722.125 428.203 725.875 428.203 730.156ZM416.906 742.906V728.469C416.906 725.75 416.75 723.359 416.438 721.297C416.125 719.203 415.656 717.438 415.031 716C414.438 714.531 413.688 713.344 412.781 712.438C411.875 711.5 410.844 710.828 409.688 710.422C408.531 709.984 407.234 709.766 405.797 709.766C404.047 709.766 402.484 710.109 401.109 710.797C399.734 711.453 398.578 712.516 397.641 713.984C396.703 715.453 395.984 717.391 395.484 719.797C395.016 722.172 394.781 725.062 394.781 728.469V742.906C394.781 745.656 394.938 748.078 395.25 750.172C395.562 752.266 396.031 754.062 396.656 755.562C397.281 757.031 398.031 758.25 398.906 759.219C399.812 760.156 400.844 760.844 402 761.281C403.188 761.719 404.484 761.938 405.891 761.938C407.672 761.938 409.25 761.594 410.625 760.906C412 760.219 413.156 759.125 414.094 757.625C415.031 756.094 415.734 754.109 416.203 751.672C416.672 749.234 416.906 746.312 416.906 742.906Z" fill="black"/>
<path d="M2747.88 701.516V770H2736.58V714.922L2719.84 720.594V711.266L2746.52 701.516H2747.88ZM2816.08 730.156V741.312C2816.08 746.656 2815.55 751.219 2814.48 755C2813.45 758.75 2811.95 761.797 2809.98 764.141C2808.02 766.484 2805.66 768.203 2802.91 769.297C2800.19 770.391 2797.14 770.938 2793.77 770.938C2791.08 770.938 2788.58 770.594 2786.27 769.906C2783.98 769.219 2781.92 768.141 2780.08 766.672C2778.23 765.203 2776.66 763.312 2775.34 761C2774.06 758.656 2773.06 755.859 2772.34 752.609C2771.66 749.359 2771.31 745.594 2771.31 741.312V730.156C2771.31 724.781 2771.84 720.25 2772.91 716.562C2773.97 712.844 2775.48 709.828 2777.45 707.516C2779.42 705.172 2781.77 703.469 2784.48 702.406C2787.23 701.344 2790.3 700.812 2793.67 700.812C2796.39 700.812 2798.89 701.156 2801.17 701.844C2803.48 702.5 2805.55 703.547 2807.36 704.984C2809.2 706.422 2810.77 708.297 2812.05 710.609C2813.36 712.891 2814.36 715.656 2815.05 718.906C2815.73 722.125 2816.08 725.875 2816.08 730.156ZM2804.78 742.906V728.469C2804.78 725.75 2804.62 723.359 2804.31 721.297C2804 719.203 2803.53 717.438 2802.91 716C2802.31 714.531 2801.56 713.344 2800.66 712.438C2799.75 711.5 2798.72 710.828 2797.56 710.422C2796.41 709.984 2795.11 709.766 2793.67 709.766C2791.92 709.766 2790.36 710.109 2788.98 710.797C2787.61 711.453 2786.45 712.516 2785.52 713.984C2784.58 715.453 2783.86 717.391 2783.36 719.797C2782.89 722.172 2782.66 725.062 2782.66 728.469V742.906C2782.66 745.656 2782.81 748.078 2783.12 750.172C2783.44 752.266 2783.91 754.062 2784.53 755.562C2785.16 757.031 2785.91 758.25 2786.78 759.219C2787.69 760.156 2788.72 760.844 2789.88 761.281C2791.06 761.719 2792.36 761.938 2793.77 761.938C2795.55 761.938 2797.12 761.594 2798.5 760.906C2799.88 760.219 2801.03 759.125 2801.97 757.625C2802.91 756.094 2803.61 754.109 2804.08 751.672C2804.55 749.234 2804.78 746.312 2804.78 742.906ZM2857 701.516V770H2845.7V714.922L2828.97 720.594V711.266L2855.64 701.516H2857ZM2914.84 701.328H2916.25V710.562H2915.45C2911.42 710.562 2907.94 711.188 2905 712.438C2902.09 713.688 2899.7 715.406 2897.83 717.594C2895.95 719.781 2894.55 722.344 2893.61 725.281C2892.7 728.188 2892.25 731.281 2892.25 734.562V745.297C2892.25 748.016 2892.55 750.422 2893.14 752.516C2893.73 754.578 2894.56 756.312 2895.62 757.719C2896.72 759.094 2897.97 760.141 2899.38 760.859C2900.78 761.578 2902.3 761.938 2903.92 761.938C2905.61 761.938 2907.14 761.594 2908.52 760.906C2909.89 760.188 2911.06 759.203 2912.03 757.953C2913 756.703 2913.73 755.219 2914.23 753.5C2914.73 751.781 2914.98 749.906 2914.98 747.875C2914.98 745.938 2914.73 744.125 2914.23 742.438C2913.77 740.719 2913.06 739.219 2912.12 737.938C2911.19 736.625 2910.02 735.609 2908.61 734.891C2907.23 734.141 2905.64 733.766 2903.83 733.766C2901.58 733.766 2899.53 734.297 2897.69 735.359C2895.88 736.422 2894.41 737.812 2893.28 739.531C2892.19 741.219 2891.59 743.016 2891.5 744.922L2887.19 743.516C2887.44 740.609 2888.08 738 2889.11 735.688C2890.17 733.375 2891.56 731.406 2893.28 729.781C2895 728.156 2896.98 726.922 2899.23 726.078C2901.52 725.203 2904.02 724.766 2906.73 724.766C2910.05 724.766 2912.92 725.391 2915.36 726.641C2917.8 727.891 2919.81 729.594 2921.41 731.75C2923.03 733.875 2924.23 736.312 2925.02 739.062C2925.83 741.781 2926.23 744.625 2926.23 747.594C2926.23 750.875 2925.73 753.938 2924.73 756.781C2923.73 759.594 2922.27 762.062 2920.33 764.188C2918.42 766.312 2916.09 767.969 2913.34 769.156C2910.62 770.344 2907.53 770.938 2904.06 770.938C2900.41 770.938 2897.14 770.234 2894.27 768.828C2891.42 767.422 2889 765.484 2887 763.016C2885.03 760.547 2883.53 757.703 2882.5 754.484C2881.47 751.266 2880.95 747.859 2880.95 744.266V739.578C2880.95 734.391 2881.61 729.5 2882.92 724.906C2884.23 720.281 2886.25 716.203 2888.97 712.672C2891.72 709.141 2895.23 706.375 2899.52 704.375C2903.8 702.344 2908.91 701.328 2914.84 701.328Z" fill="black"/>
<path d="M3376.88 701.516V770H3365.58V714.922L3348.84 720.594V711.266L3375.52 701.516H3376.88ZM3445.08 730.156V741.312C3445.08 746.656 3444.55 751.219 3443.48 755C3442.45 758.75 3440.95 761.797 3438.98 764.141C3437.02 766.484 3434.66 768.203 3431.91 769.297C3429.19 770.391 3426.14 770.938 3422.77 770.938C3420.08 770.938 3417.58 770.594 3415.27 769.906C3412.98 769.219 3410.92 768.141 3409.08 766.672C3407.23 765.203 3405.66 763.312 3404.34 761C3403.06 758.656 3402.06 755.859 3401.34 752.609C3400.66 749.359 3400.31 745.594 3400.31 741.312V730.156C3400.31 724.781 3400.84 720.25 3401.91 716.562C3402.97 712.844 3404.48 709.828 3406.45 707.516C3408.42 705.172 3410.77 703.469 3413.48 702.406C3416.23 701.344 3419.3 700.812 3422.67 700.812C3425.39 700.812 3427.89 701.156 3430.17 701.844C3432.48 702.5 3434.55 703.547 3436.36 704.984C3438.2 706.422 3439.77 708.297 3441.05 710.609C3442.36 712.891 3443.36 715.656 3444.05 718.906C3444.73 722.125 3445.08 725.875 3445.08 730.156ZM3433.78 742.906V728.469C3433.78 725.75 3433.62 723.359 3433.31 721.297C3433 719.203 3432.53 717.438 3431.91 716C3431.31 714.531 3430.56 713.344 3429.66 712.438C3428.75 711.5 3427.72 710.828 3426.56 710.422C3425.41 709.984 3424.11 709.766 3422.67 709.766C3420.92 709.766 3419.36 710.109 3417.98 710.797C3416.61 711.453 3415.45 712.516 3414.52 713.984C3413.58 715.453 3412.86 717.391 3412.36 719.797C3411.89 722.172 3411.66 725.062 3411.66 728.469V742.906C3411.66 745.656 3411.81 748.078 3412.12 750.172C3412.44 752.266 3412.91 754.062 3413.53 755.562C3414.16 757.031 3414.91 758.25 3415.78 759.219C3416.69 760.156 3417.72 760.844 3418.88 761.281C3420.06 761.719 3421.36 761.938 3422.77 761.938C3424.55 761.938 3426.12 761.594 3427.5 760.906C3428.88 760.219 3430.03 759.125 3430.97 757.625C3431.91 756.094 3432.61 754.109 3433.08 751.672C3433.55 749.234 3433.78 746.312 3433.78 742.906ZM3500.91 761V770H3455.16V762.266L3477.38 738.031C3479.81 735.281 3481.73 732.906 3483.14 730.906C3484.55 728.906 3485.53 727.109 3486.09 725.516C3486.69 723.891 3486.98 722.312 3486.98 720.781C3486.98 718.625 3486.58 716.734 3485.77 715.109C3484.98 713.453 3483.83 712.156 3482.3 711.219C3480.77 710.25 3478.91 709.766 3476.72 709.766C3474.19 709.766 3472.06 710.312 3470.34 711.406C3468.62 712.5 3467.33 714.016 3466.45 715.953C3465.58 717.859 3465.14 720.047 3465.14 722.516H3453.84C3453.84 718.547 3454.75 714.922 3456.56 711.641C3458.38 708.328 3461 705.703 3464.44 703.766C3467.88 701.797 3472.02 700.812 3476.86 700.812C3481.42 700.812 3485.3 701.578 3488.48 703.109C3491.67 704.641 3494.09 706.812 3495.75 709.625C3497.44 712.438 3498.28 715.766 3498.28 719.609C3498.28 721.734 3497.94 723.844 3497.25 725.938C3496.56 728.031 3495.58 730.125 3494.3 732.219C3493.05 734.281 3491.56 736.359 3489.84 738.453C3488.12 740.516 3486.23 742.609 3484.17 744.734L3469.41 761H3500.91ZM3554.2 730.156V741.312C3554.2 746.656 3553.67 751.219 3552.61 755C3551.58 758.75 3550.08 761.797 3548.11 764.141C3546.14 766.484 3543.78 768.203 3541.03 769.297C3538.31 770.391 3535.27 770.938 3531.89 770.938C3529.2 770.938 3526.7 770.594 3524.39 769.906C3522.11 769.219 3520.05 768.141 3518.2 766.672C3516.36 765.203 3514.78 763.312 3513.47 761C3512.19 758.656 3511.19 755.859 3510.47 752.609C3509.78 749.359 3509.44 745.594 3509.44 741.312V730.156C3509.44 724.781 3509.97 720.25 3511.03 716.562C3512.09 712.844 3513.61 709.828 3515.58 707.516C3517.55 705.172 3519.89 703.469 3522.61 702.406C3525.36 701.344 3528.42 700.812 3531.8 700.812C3534.52 700.812 3537.02 701.156 3539.3 701.844C3541.61 702.5 3543.67 703.547 3545.48 704.984C3547.33 706.422 3548.89 708.297 3550.17 710.609C3551.48 712.891 3552.48 715.656 3553.17 718.906C3553.86 722.125 3554.2 725.875 3554.2 730.156ZM3542.91 742.906V728.469C3542.91 725.75 3542.75 723.359 3542.44 721.297C3542.12 719.203 3541.66 717.438 3541.03 716C3540.44 714.531 3539.69 713.344 3538.78 712.438C3537.88 711.5 3536.84 710.828 3535.69 710.422C3534.53 709.984 3533.23 709.766 3531.8 709.766C3530.05 709.766 3528.48 710.109 3527.11 710.797C3525.73 711.453 3524.58 712.516 3523.64 713.984C3522.7 715.453 3521.98 717.391 3521.48 719.797C3521.02 722.172 3520.78 725.062 3520.78 728.469V742.906C3520.78 745.656 3520.94 748.078 3521.25 750.172C3521.56 752.266 3522.03 754.062 3522.66 755.562C3523.28 757.031 3524.03 758.25 3524.91 759.219C3525.81 760.156 3526.84 760.844 3528 761.281C3529.19 761.719 3530.48 761.938 3531.89 761.938C3533.67 761.938 3535.25 761.594 3536.62 760.906C3538 760.219 3539.16 759.125 3540.09 757.625C3541.03 756.094 3541.73 754.109 3542.2 751.672C3542.67 749.234 3542.91 746.312 3542.91 742.906Z" fill="black"/>
<path d="M2091.59 701.516V770H2080.3V714.922L2063.56 720.594V711.266L2090.23 701.516H2091.59ZM2159.8 730.156V741.312C2159.8 746.656 2159.27 751.219 2158.2 755C2157.17 758.75 2155.67 761.797 2153.7 764.141C2151.73 766.484 2149.38 768.203 2146.62 769.297C2143.91 770.391 2140.86 770.938 2137.48 770.938C2134.8 770.938 2132.3 770.594 2129.98 769.906C2127.7 769.219 2125.64 768.141 2123.8 766.672C2121.95 765.203 2120.38 763.312 2119.06 761C2117.78 758.656 2116.78 755.859 2116.06 752.609C2115.38 749.359 2115.03 745.594 2115.03 741.312V730.156C2115.03 724.781 2115.56 720.25 2116.62 716.562C2117.69 712.844 2119.2 709.828 2121.17 707.516C2123.14 705.172 2125.48 703.469 2128.2 702.406C2130.95 701.344 2134.02 700.812 2137.39 700.812C2140.11 700.812 2142.61 701.156 2144.89 701.844C2147.2 702.5 2149.27 703.547 2151.08 704.984C2152.92 706.422 2154.48 708.297 2155.77 710.609C2157.08 712.891 2158.08 715.656 2158.77 718.906C2159.45 722.125 2159.8 725.875 2159.8 730.156ZM2148.5 742.906V728.469C2148.5 725.75 2148.34 723.359 2148.03 721.297C2147.72 719.203 2147.25 717.438 2146.62 716C2146.03 714.531 2145.28 713.344 2144.38 712.438C2143.47 711.5 2142.44 710.828 2141.28 710.422C2140.12 709.984 2138.83 709.766 2137.39 709.766C2135.64 709.766 2134.08 710.109 2132.7 710.797C2131.33 711.453 2130.17 712.516 2129.23 713.984C2128.3 715.453 2127.58 717.391 2127.08 719.797C2126.61 722.172 2126.38 725.062 2126.38 728.469V742.906C2126.38 745.656 2126.53 748.078 2126.84 750.172C2127.16 752.266 2127.62 754.062 2128.25 755.562C2128.88 757.031 2129.62 758.25 2130.5 759.219C2131.41 760.156 2132.44 760.844 2133.59 761.281C2134.78 761.719 2136.08 761.938 2137.48 761.938C2139.27 761.938 2140.84 761.594 2142.22 760.906C2143.59 760.219 2144.75 759.125 2145.69 757.625C2146.62 756.094 2147.33 754.109 2147.8 751.672C2148.27 749.234 2148.5 746.312 2148.5 742.906ZM2214.36 730.156V741.312C2214.36 746.656 2213.83 751.219 2212.77 755C2211.73 758.75 2210.23 761.797 2208.27 764.141C2206.3 766.484 2203.94 768.203 2201.19 769.297C2198.47 770.391 2195.42 770.938 2192.05 770.938C2189.36 770.938 2186.86 770.594 2184.55 769.906C2182.27 769.219 2180.2 768.141 2178.36 766.672C2176.52 765.203 2174.94 763.312 2173.62 761C2172.34 758.656 2171.34 755.859 2170.62 752.609C2169.94 749.359 2169.59 745.594 2169.59 741.312V730.156C2169.59 724.781 2170.12 720.25 2171.19 716.562C2172.25 712.844 2173.77 709.828 2175.73 707.516C2177.7 705.172 2180.05 703.469 2182.77 702.406C2185.52 701.344 2188.58 700.812 2191.95 700.812C2194.67 700.812 2197.17 701.156 2199.45 701.844C2201.77 702.5 2203.83 703.547 2205.64 704.984C2207.48 706.422 2209.05 708.297 2210.33 710.609C2211.64 712.891 2212.64 715.656 2213.33 718.906C2214.02 722.125 2214.36 725.875 2214.36 730.156ZM2203.06 742.906V728.469C2203.06 725.75 2202.91 723.359 2202.59 721.297C2202.28 719.203 2201.81 717.438 2201.19 716C2200.59 714.531 2199.84 713.344 2198.94 712.438C2198.03 711.5 2197 710.828 2195.84 710.422C2194.69 709.984 2193.39 709.766 2191.95 709.766C2190.2 709.766 2188.64 710.109 2187.27 710.797C2185.89 711.453 2184.73 712.516 2183.8 713.984C2182.86 715.453 2182.14 717.391 2181.64 719.797C2181.17 722.172 2180.94 725.062 2180.94 728.469V742.906C2180.94 745.656 2181.09 748.078 2181.41 750.172C2181.72 752.266 2182.19 754.062 2182.81 755.562C2183.44 757.031 2184.19 758.25 2185.06 759.219C2185.97 760.156 2187 760.844 2188.16 761.281C2189.34 761.719 2190.64 761.938 2192.05 761.938C2193.83 761.938 2195.41 761.594 2196.78 760.906C2198.16 760.219 2199.31 759.125 2200.25 757.625C2201.19 756.094 2201.89 754.109 2202.36 751.672C2202.83 749.234 2203.06 746.312 2203.06 742.906ZM2255.28 701.516V770H2243.98V714.922L2227.25 720.594V711.266L2253.92 701.516H2255.28ZM2324.75 761V770H2279V762.266L2301.22 738.031C2303.66 735.281 2305.58 732.906 2306.98 730.906C2308.39 728.906 2309.38 727.109 2309.94 725.516C2310.53 723.891 2310.83 722.312 2310.83 720.781C2310.83 718.625 2310.42 716.734 2309.61 715.109C2308.83 713.453 2307.67 712.156 2306.14 711.219C2304.61 710.25 2302.75 709.766 2300.56 709.766C2298.03 709.766 2295.91 710.312 2294.19 711.406C2292.47 712.5 2291.17 714.016 2290.3 715.953C2289.42 717.859 2288.98 720.047 2288.98 722.516H2277.69C2277.69 718.547 2278.59 714.922 2280.41 711.641C2282.22 708.328 2284.84 705.703 2288.28 703.766C2291.72 701.797 2295.86 700.812 2300.7 700.812C2305.27 700.812 2309.14 701.578 2312.33 703.109C2315.52 704.641 2317.94 706.812 2319.59 709.625C2321.28 712.438 2322.12 715.766 2322.12 719.609C2322.12 721.734 2321.78 723.844 2321.09 725.938C2320.41 728.031 2319.42 730.125 2318.14 732.219C2316.89 734.281 2315.41 736.359 2313.69 738.453C2311.97 740.516 2310.08 742.609 2308.02 744.734L2293.25 761H2324.75Z" fill="black"/>
<path d="M1508.88 701.516V770H1497.58V714.922L1480.84 720.594V711.266L1507.52 701.516H1508.88ZM1577.08 730.156V741.312C1577.08 746.656 1576.55 751.219 1575.48 755C1574.45 758.75 1572.95 761.797 1570.98 764.141C1569.02 766.484 1566.66 768.203 1563.91 769.297C1561.19 770.391 1558.14 770.938 1554.77 770.938C1552.08 770.938 1549.58 770.594 1547.27 769.906C1544.98 769.219 1542.92 768.141 1541.08 766.672C1539.23 765.203 1537.66 763.312 1536.34 761C1535.06 758.656 1534.06 755.859 1533.34 752.609C1532.66 749.359 1532.31 745.594 1532.31 741.312V730.156C1532.31 724.781 1532.84 720.25 1533.91 716.562C1534.97 712.844 1536.48 709.828 1538.45 707.516C1540.42 705.172 1542.77 703.469 1545.48 702.406C1548.23 701.344 1551.3 700.812 1554.67 700.812C1557.39 700.812 1559.89 701.156 1562.17 701.844C1564.48 702.5 1566.55 703.547 1568.36 704.984C1570.2 706.422 1571.77 708.297 1573.05 710.609C1574.36 712.891 1575.36 715.656 1576.05 718.906C1576.73 722.125 1577.08 725.875 1577.08 730.156ZM1565.78 742.906V728.469C1565.78 725.75 1565.62 723.359 1565.31 721.297C1565 719.203 1564.53 717.438 1563.91 716C1563.31 714.531 1562.56 713.344 1561.66 712.438C1560.75 711.5 1559.72 710.828 1558.56 710.422C1557.41 709.984 1556.11 709.766 1554.67 709.766C1552.92 709.766 1551.36 710.109 1549.98 710.797C1548.61 711.453 1547.45 712.516 1546.52 713.984C1545.58 715.453 1544.86 717.391 1544.36 719.797C1543.89 722.172 1543.66 725.062 1543.66 728.469V742.906C1543.66 745.656 1543.81 748.078 1544.12 750.172C1544.44 752.266 1544.91 754.062 1545.53 755.562C1546.16 757.031 1546.91 758.25 1547.78 759.219C1548.69 760.156 1549.72 760.844 1550.88 761.281C1552.06 761.719 1553.36 761.938 1554.77 761.938C1556.55 761.938 1558.12 761.594 1559.5 760.906C1560.88 760.219 1562.03 759.125 1562.97 757.625C1563.91 756.094 1564.61 754.109 1565.08 751.672C1565.55 749.234 1565.78 746.312 1565.78 742.906ZM1631.64 730.156V741.312C1631.64 746.656 1631.11 751.219 1630.05 755C1629.02 758.75 1627.52 761.797 1625.55 764.141C1623.58 766.484 1621.22 768.203 1618.47 769.297C1615.75 770.391 1612.7 770.938 1609.33 770.938C1606.64 770.938 1604.14 770.594 1601.83 769.906C1599.55 769.219 1597.48 768.141 1595.64 766.672C1593.8 765.203 1592.22 763.312 1590.91 761C1589.62 758.656 1588.62 755.859 1587.91 752.609C1587.22 749.359 1586.88 745.594 1586.88 741.312V730.156C1586.88 724.781 1587.41 720.25 1588.47 716.562C1589.53 712.844 1591.05 709.828 1593.02 707.516C1594.98 705.172 1597.33 703.469 1600.05 702.406C1602.8 701.344 1605.86 700.812 1609.23 700.812C1611.95 700.812 1614.45 701.156 1616.73 701.844C1619.05 702.5 1621.11 703.547 1622.92 704.984C1624.77 706.422 1626.33 708.297 1627.61 710.609C1628.92 712.891 1629.92 715.656 1630.61 718.906C1631.3 722.125 1631.64 725.875 1631.64 730.156ZM1620.34 742.906V728.469C1620.34 725.75 1620.19 723.359 1619.88 721.297C1619.56 719.203 1619.09 717.438 1618.47 716C1617.88 714.531 1617.12 713.344 1616.22 712.438C1615.31 711.5 1614.28 710.828 1613.12 710.422C1611.97 709.984 1610.67 709.766 1609.23 709.766C1607.48 709.766 1605.92 710.109 1604.55 710.797C1603.17 711.453 1602.02 712.516 1601.08 713.984C1600.14 715.453 1599.42 717.391 1598.92 719.797C1598.45 722.172 1598.22 725.062 1598.22 728.469V742.906C1598.22 745.656 1598.38 748.078 1598.69 750.172C1599 752.266 1599.47 754.062 1600.09 755.562C1600.72 757.031 1601.47 758.25 1602.34 759.219C1603.25 760.156 1604.28 760.844 1605.44 761.281C1606.62 761.719 1607.92 761.938 1609.33 761.938C1611.11 761.938 1612.69 761.594 1614.06 760.906C1615.44 760.219 1616.59 759.125 1617.53 757.625C1618.47 756.094 1619.17 754.109 1619.64 751.672C1620.11 749.234 1620.34 746.312 1620.34 742.906ZM1686.34 751.391C1686.34 755.641 1685.36 759.219 1683.39 762.125C1681.42 765.031 1678.73 767.234 1675.33 768.734C1671.95 770.203 1668.14 770.938 1663.89 770.938C1659.64 770.938 1655.81 770.203 1652.41 768.734C1649 767.234 1646.31 765.031 1644.34 762.125C1642.38 759.219 1641.39 755.641 1641.39 751.391C1641.39 748.578 1641.94 746.031 1643.03 743.75C1644.12 741.438 1645.67 739.453 1647.67 737.797C1649.7 736.109 1652.08 734.812 1654.8 733.906C1657.55 733 1660.55 732.547 1663.8 732.547C1668.11 732.547 1671.97 733.344 1675.38 734.938C1678.78 736.531 1681.45 738.734 1683.39 741.547C1685.36 744.359 1686.34 747.641 1686.34 751.391ZM1675 750.828C1675 748.547 1674.53 746.547 1673.59 744.828C1672.66 743.109 1671.34 741.781 1669.66 740.844C1667.97 739.906 1666.02 739.438 1663.8 739.438C1661.55 739.438 1659.59 739.906 1657.94 740.844C1656.28 741.781 1654.98 743.109 1654.05 744.828C1653.14 746.547 1652.69 748.547 1652.69 750.828C1652.69 753.141 1653.14 755.141 1654.05 756.828C1654.95 758.484 1656.25 759.75 1657.94 760.625C1659.62 761.5 1661.61 761.938 1663.89 761.938C1666.17 761.938 1668.14 761.5 1669.8 760.625C1671.45 759.75 1672.73 758.484 1673.64 756.828C1674.55 755.141 1675 753.141 1675 750.828ZM1684.8 719.703C1684.8 723.109 1683.89 726.141 1682.08 728.797C1680.3 731.453 1677.83 733.547 1674.67 735.078C1671.52 736.578 1667.92 737.328 1663.89 737.328C1659.83 737.328 1656.2 736.578 1653.02 735.078C1649.86 733.547 1647.38 731.453 1645.56 728.797C1643.78 726.141 1642.89 723.109 1642.89 719.703C1642.89 715.641 1643.78 712.219 1645.56 709.438C1647.38 706.625 1649.86 704.484 1653.02 703.016C1656.17 701.547 1659.78 700.812 1663.84 700.812C1667.91 700.812 1671.52 701.547 1674.67 703.016C1677.83 704.484 1680.3 706.625 1682.08 709.438C1683.89 712.219 1684.8 715.641 1684.8 719.703ZM1673.5 720.078C1673.5 718.047 1673.09 716.266 1672.28 714.734C1671.5 713.172 1670.39 711.953 1668.95 711.078C1667.52 710.203 1665.81 709.766 1663.84 709.766C1661.88 709.766 1660.17 710.188 1658.73 711.031C1657.3 711.875 1656.19 713.062 1655.41 714.594C1654.62 716.125 1654.23 717.953 1654.23 720.078C1654.23 722.172 1654.62 724 1655.41 725.562C1656.19 727.094 1657.3 728.297 1658.73 729.172C1660.2 730.047 1661.92 730.484 1663.89 730.484C1665.86 730.484 1667.56 730.047 1669 729.172C1670.44 728.297 1671.55 727.094 1672.33 725.562C1673.11 724 1673.5 722.172 1673.5 720.078Z" fill="black"/>
<path d="M879.875 701.516V770H868.578V714.922L851.844 720.594V711.266L878.516 701.516H879.875ZM948.078 730.156V741.312C948.078 746.656 947.547 751.219 946.484 755C945.453 758.75 943.953 761.797 941.984 764.141C940.016 766.484 937.656 768.203 934.906 769.297C932.188 770.391 929.141 770.938 925.766 770.938C923.078 770.938 920.578 770.594 918.266 769.906C915.984 769.219 913.922 768.141 912.078 766.672C910.234 765.203 908.656 763.312 907.344 761C906.062 758.656 905.062 755.859 904.344 752.609C903.656 749.359 903.312 745.594 903.312 741.312V730.156C903.312 724.781 903.844 720.25 904.906 716.562C905.969 712.844 907.484 709.828 909.453 707.516C911.422 705.172 913.766 703.469 916.484 702.406C919.234 701.344 922.297 700.812 925.672 700.812C928.391 700.812 930.891 701.156 933.172 701.844C935.484 702.5 937.547 703.547 939.359 704.984C941.203 706.422 942.766 708.297 944.047 710.609C945.359 712.891 946.359 715.656 947.047 718.906C947.734 722.125 948.078 725.875 948.078 730.156ZM936.781 742.906V728.469C936.781 725.75 936.625 723.359 936.312 721.297C936 719.203 935.531 717.438 934.906 716C934.312 714.531 933.562 713.344 932.656 712.438C931.75 711.5 930.719 710.828 929.562 710.422C928.406 709.984 927.109 709.766 925.672 709.766C923.922 709.766 922.359 710.109 920.984 710.797C919.609 711.453 918.453 712.516 917.516 713.984C916.578 715.453 915.859 717.391 915.359 719.797C914.891 722.172 914.656 725.062 914.656 728.469V742.906C914.656 745.656 914.812 748.078 915.125 750.172C915.438 752.266 915.906 754.062 916.531 755.562C917.156 757.031 917.906 758.25 918.781 759.219C919.688 760.156 920.719 760.844 921.875 761.281C923.062 761.719 924.359 761.938 925.766 761.938C927.547 761.938 929.125 761.594 930.5 760.906C931.875 760.219 933.031 759.125 933.969 757.625C934.906 756.094 935.609 754.109 936.078 751.672C936.547 749.234 936.781 746.312 936.781 742.906ZM1002.64 730.156V741.312C1002.64 746.656 1002.11 751.219 1001.05 755C1000.02 758.75 998.516 761.797 996.547 764.141C994.578 766.484 992.219 768.203 989.469 769.297C986.75 770.391 983.703 770.938 980.328 770.938C977.641 770.938 975.141 770.594 972.828 769.906C970.547 769.219 968.484 768.141 966.641 766.672C964.797 765.203 963.219 763.312 961.906 761C960.625 758.656 959.625 755.859 958.906 752.609C958.219 749.359 957.875 745.594 957.875 741.312V730.156C957.875 724.781 958.406 720.25 959.469 716.562C960.531 712.844 962.047 709.828 964.016 707.516C965.984 705.172 968.328 703.469 971.047 702.406C973.797 701.344 976.859 700.812 980.234 700.812C982.953 700.812 985.453 701.156 987.734 701.844C990.047 702.5 992.109 703.547 993.922 704.984C995.766 706.422 997.328 708.297 998.609 710.609C999.922 712.891 1000.92 715.656 1001.61 718.906C1002.3 722.125 1002.64 725.875 1002.64 730.156ZM991.344 742.906V728.469C991.344 725.75 991.188 723.359 990.875 721.297C990.562 719.203 990.094 717.438 989.469 716C988.875 714.531 988.125 713.344 987.219 712.438C986.312 711.5 985.281 710.828 984.125 710.422C982.969 709.984 981.672 709.766 980.234 709.766C978.484 709.766 976.922 710.109 975.547 710.797C974.172 711.453 973.016 712.516 972.078 713.984C971.141 715.453 970.422 717.391 969.922 719.797C969.453 722.172 969.219 725.062 969.219 728.469V742.906C969.219 745.656 969.375 748.078 969.688 750.172C970 752.266 970.469 754.062 971.094 755.562C971.719 757.031 972.469 758.25 973.344 759.219C974.25 760.156 975.281 760.844 976.438 761.281C977.625 761.719 978.922 761.938 980.328 761.938C982.109 761.938 983.688 761.594 985.062 760.906C986.438 760.219 987.594 759.125 988.531 757.625C989.469 756.094 990.172 754.109 990.641 751.672C991.109 749.234 991.344 746.312 991.344 742.906ZM1059.73 745.672V754.672H1010.52L1010.14 747.875L1039.58 701.75H1048.62L1038.83 718.531L1021.91 745.672H1059.73ZM1051.2 701.75V770H1039.91V701.75H1051.2Z" fill="black"/>
</svg>
