<svg width="115" height="70" viewBox="0 0 115 70" fill="none" xmlns="http://www.w3.org/2000/svg">
<path d="M70.1711 69V12.36H47.8991V1.8H104.923V12.36H82.6511V69H70.1711Z" fill="#2925EB"/>
<path d="M38.753 69.96C33.633 69.96 28.865 69.128 24.449 67.464C20.097 65.736 16.289 63.336 13.025 60.264C9.825 57.128 7.329 53.448 5.537 49.224C3.745 45 2.849 40.392 2.849 35.4C2.849 30.408 3.745 25.8 5.537 21.576C7.329 17.352 9.857 13.704 13.121 10.632C16.385 7.496 20.193 5.096 24.545 3.432C28.897 1.704 33.665 0.839996 38.849 0.839996C44.353 0.839996 49.377 1.8 53.921 3.72C58.465 5.576 62.305 8.36 65.441 12.072L57.377 19.656C54.945 17.032 52.225 15.08 49.217 13.8C46.209 12.456 42.945 11.784 39.425 11.784C35.905 11.784 32.673 12.36 29.729 13.512C26.849 14.664 24.321 16.296 22.145 18.408C20.033 20.52 18.369 23.016 17.153 25.896C16.001 28.776 15.425 31.944 15.425 35.4C15.425 38.856 16.001 42.024 17.153 44.904C18.369 47.784 20.033 50.28 22.145 52.392C24.321 54.504 26.849 56.136 29.729 57.288C32.673 58.44 35.905 59.016 39.425 59.016C42.945 59.016 46.209 58.376 49.217 57.096C52.225 55.752 54.945 53.736 57.377 51.048L65.441 58.728C62.305 62.376 58.465 65.16 53.921 67.08C49.377 69 44.321 69.96 38.753 69.96Z" fill="#2925EB"/>
<path d="M47.9023 12.3672V1.79688C55.0609 3.42042 60.8477 6.76172 65.1289 11.707L65.4414 12.0742L65.1289 12.3672H47.9023Z" fill="white"/>
<path d="M23.188 39.777C22.3133 39.777 21.5347 39.5904 20.852 39.217C20.1693 38.833 19.6307 38.3104 19.236 37.649C18.8413 36.9877 18.644 36.2357 18.644 35.393C18.644 34.5397 18.8413 33.7877 19.236 33.137C19.6307 32.4757 20.1693 31.9584 20.852 31.585C21.5347 31.2117 22.3133 31.025 23.188 31.025C24.0733 31.025 24.8573 31.2117 25.54 31.585C26.2333 31.9584 26.772 32.4704 27.156 33.121C27.5507 33.7717 27.748 34.529 27.748 35.393C27.748 36.2357 27.5507 36.9877 27.156 37.649C26.772 38.3104 26.2333 38.833 25.54 39.217C24.8573 39.5904 24.0733 39.777 23.188 39.777ZM23.188 38.065C23.6787 38.065 24.116 37.9584 24.5 37.745C24.884 37.5317 25.1827 37.2224 25.396 36.817C25.62 36.4117 25.732 35.937 25.732 35.393C25.732 34.8384 25.62 34.3637 25.396 33.969C25.1827 33.5637 24.884 33.2544 24.5 33.041C24.116 32.8277 23.684 32.721 23.204 32.721C22.7133 32.721 22.276 32.8277 21.892 33.041C21.5187 33.2544 21.22 33.5637 20.996 33.969C20.772 34.3637 20.66 34.8384 20.66 35.393C20.66 35.937 20.772 36.4117 20.996 36.817C21.22 37.2224 21.5187 37.5317 21.892 37.745C22.276 37.9584 22.708 38.065 23.188 38.065ZM29.6605 39.665V27.793H31.6605V39.665H29.6605ZM39.5495 39.665V37.937L39.4375 37.569V34.545C39.4375 33.9584 39.2615 33.505 38.9095 33.185C38.5575 32.8544 38.0242 32.689 37.3095 32.689C36.8295 32.689 36.3548 32.7637 35.8855 32.913C35.4268 33.0624 35.0375 33.2704 34.7175 33.537L33.9335 32.081C34.3922 31.729 34.9362 31.4677 35.5655 31.297C36.2055 31.1157 36.8668 31.025 37.5495 31.025C38.7868 31.025 39.7415 31.3237 40.4135 31.921C41.0962 32.5077 41.4375 33.4197 41.4375 34.657V39.665H39.5495ZM36.8615 39.777C36.2215 39.777 35.6615 39.6704 35.1815 39.457C34.7015 39.233 34.3282 38.929 34.0615 38.545C33.8055 38.1504 33.6775 37.7077 33.6775 37.217C33.6775 36.737 33.7895 36.305 34.0135 35.921C34.2482 35.537 34.6268 35.233 35.1495 35.009C35.6722 34.785 36.3655 34.673 37.2295 34.673H39.7095V36.001H37.3735C36.6908 36.001 36.2322 36.113 35.9975 36.337C35.7628 36.5504 35.6455 36.817 35.6455 37.137C35.6455 37.4997 35.7895 37.7877 36.0775 38.001C36.3655 38.2144 36.7655 38.321 37.2775 38.321C37.7682 38.321 38.2055 38.209 38.5895 37.985C38.9842 37.761 39.2668 37.4304 39.4375 36.993L39.7735 38.193C39.5815 38.6944 39.2348 39.0837 38.7335 39.361C38.2428 39.6384 37.6188 39.777 36.8615 39.777Z" fill="#585858"/>
<path d="M89.4656 41.1345C88.5162 41.1345 87.6842 40.9478 86.9696 40.5745C86.2656 40.1905 85.7162 39.6678 85.3216 39.0065C84.9376 38.3451 84.7456 37.5931 84.7456 36.7505C84.7456 35.8971 84.9322 35.1451 85.3056 34.4945C85.6896 33.8331 86.2122 33.3158 86.8736 32.9425C87.5456 32.5691 88.3082 32.3825 89.1616 32.3825C89.9936 32.3825 90.7349 32.5638 91.3856 32.9265C92.0362 33.2891 92.5482 33.8011 92.9216 34.4625C93.2949 35.1238 93.4816 35.9025 93.4816 36.7985C93.4816 36.8838 93.4762 36.9798 93.4656 37.0865C93.4656 37.1931 93.4602 37.2945 93.4496 37.3905H86.3296V36.0625H92.3936L91.6096 36.4785C91.6202 35.9878 91.5189 35.5558 91.3056 35.1825C91.0922 34.8091 90.7989 34.5158 90.4256 34.3025C90.0629 34.0891 89.6416 33.9825 89.1616 33.9825C88.6709 33.9825 88.2389 34.0891 87.8656 34.3025C87.5029 34.5158 87.2149 34.8145 87.0016 35.1985C86.7989 35.5718 86.6976 36.0145 86.6976 36.5265V36.8465C86.6976 37.3585 86.8149 37.8118 87.0496 38.2065C87.2842 38.6011 87.6149 38.9051 88.0416 39.1185C88.4682 39.3318 88.9589 39.4385 89.5136 39.4385C89.9936 39.4385 90.4256 39.3638 90.8096 39.2145C91.1936 39.0651 91.5349 38.8305 91.8336 38.5105L92.9056 39.7425C92.5216 40.1905 92.0362 40.5371 91.4496 40.7825C90.8736 41.0171 90.2122 41.1345 89.4656 41.1345ZM99.3227 41.1345C98.4267 41.1345 97.6267 40.9478 96.9227 40.5745C96.2294 40.1905 95.6854 39.6678 95.2907 39.0065C94.896 38.3451 94.6987 37.5931 94.6987 36.7505C94.6987 35.8971 94.896 35.1451 95.2907 34.4945C95.6854 33.8331 96.2294 33.3158 96.9227 32.9425C97.6267 32.5691 98.4267 32.3825 99.3227 32.3825C100.155 32.3825 100.885 32.5531 101.515 32.8945C102.155 33.2251 102.64 33.7158 102.971 34.3665L101.435 35.2625C101.179 34.8571 100.864 34.5585 100.491 34.3665C100.128 34.1745 99.7334 34.0785 99.3067 34.0785C98.816 34.0785 98.3734 34.1851 97.9787 34.3985C97.584 34.6118 97.2747 34.9211 97.0507 35.3265C96.8267 35.7211 96.7147 36.1958 96.7147 36.7505C96.7147 37.3051 96.8267 37.7851 97.0507 38.1905C97.2747 38.5851 97.584 38.8891 97.9787 39.1025C98.3734 39.3158 98.816 39.4225 99.3067 39.4225C99.7334 39.4225 100.128 39.3265 100.491 39.1345C100.864 38.9425 101.179 38.6438 101.435 38.2385L102.971 39.1345C102.64 39.7745 102.155 40.2705 101.515 40.6225C100.885 40.9638 100.155 41.1345 99.3227 41.1345ZM109.469 32.3825C110.152 32.3825 110.76 32.5158 111.293 32.7825C111.837 33.0491 112.264 33.4598 112.573 34.0145C112.883 34.5585 113.037 35.2625 113.037 36.1265V41.0225H111.037V36.3825C111.037 35.6251 110.856 35.0598 110.493 34.6865C110.141 34.3131 109.645 34.1265 109.005 34.1265C108.536 34.1265 108.12 34.2225 107.757 34.4145C107.395 34.6065 107.112 34.8945 106.909 35.2785C106.717 35.6518 106.621 36.1265 106.621 36.7025V41.0225H104.621V29.1505H106.621V34.7825L106.189 34.0785C106.488 33.5345 106.92 33.1185 107.485 32.8305C108.061 32.5318 108.723 32.3825 109.469 32.3825Z" fill="#585858"/>
</svg>
